<svg width="91" height="42" viewBox="0 0 91 42" fill="none" xmlns="http://www.w3.org/2000/svg">
<g clip-path="url(#clip0_257_790)">
<path d="M0 42V0.599476H4.80538V5.3996H4.86583L5.46596 4.49823C6.14596 3.45885 7.36782 2.44966 9.12936 1.4685C10.8909 0.4895 13.054 0 15.6164 0C19.6209 0 23.0252 1.49006 25.8273 4.47019C28.6294 7.45033 30.0325 11.1615 30.0325 15.6015C30.0325 20.0415 28.6315 23.7526 25.8273 26.7328C23.0231 29.7129 19.6187 31.203 15.6164 31.203C13.054 31.203 10.8801 30.7135 9.09914 29.7345C7.31601 28.7533 6.10495 27.7247 5.46596 26.6443L4.86583 25.8034H4.80538V42.0043H0V42ZM7.71754 7.61852C5.77466 9.69944 4.80538 12.3583 4.80538 15.5993C4.80538 18.8404 5.77466 21.4992 7.71754 23.5801C9.65825 25.661 12.0912 26.7004 15.0163 26.7004C17.9392 26.7004 20.3721 25.661 22.315 23.5801C24.2557 21.5014 25.2272 18.8404 25.2272 15.5993C25.2272 12.3583 24.2557 9.69944 22.315 7.61852C20.3721 5.53976 17.9392 4.49823 15.0163 4.49823C12.0933 4.50038 9.66041 5.53976 7.71754 7.61852Z" fill="white"/>
<path d="M35.98 26.7608C33.0161 23.8001 31.5352 20.0803 31.5352 15.6015C31.5352 11.1227 33.0161 7.40288 35.98 4.44216C38.9418 1.47928 42.6657 0 47.1516 0C51.6353 0 55.3591 1.47928 58.3231 4.44001C61.2871 7.40073 62.768 11.1205 62.768 15.5993C62.768 20.0803 61.2849 23.8001 58.3231 26.7586C55.3591 29.7194 51.6353 31.1986 47.1516 31.1986C42.6657 31.1986 38.9418 29.7215 35.98 26.7608ZM39.4038 7.61852C37.3616 9.69944 36.3405 12.3583 36.3405 15.5993C36.3405 18.8404 37.3616 21.4992 39.4038 23.5801C41.446 25.661 44.0278 26.7004 47.1516 26.7004C50.2753 26.7004 52.8571 25.661 54.8993 23.5801C56.9415 21.5014 57.9626 18.8404 57.9626 15.5993C57.9626 12.3583 56.9415 9.69944 54.8993 7.61852C52.8571 5.53976 50.2753 4.49823 47.1516 4.49823C44.0278 4.50038 41.4438 5.53976 39.4038 7.61852Z" fill="white"/>
<path d="M61.8677 0.599487H67.8668L76.0161 26.0988H79.876L85.0721 0.599487H91L82.5895 30.5992H70.276L61.8677 0.599487Z" fill="white"/>
</g>
<defs>
<clipPath id="clip0_257_790">
<rect width="91" height="42" fill="white"/>
</clipPath>
</defs>
</svg>
