<?xml version="1.0" encoding="utf-8"?>
<!-- Generator: Adobe Illustrator 25.0.0, SVG Export Plug-In . SVG Version: 6.00 Build 0)  -->
<svg version="1.1" id="Layer_1" xmlns="http://www.w3.org/2000/svg" xmlns:xlink="http://www.w3.org/1999/xlink" x="0px" y="0px"
	 viewBox="0 0 1152 648" style="enable-background:new 0 0 1152 648;" xml:space="preserve">
<style type="text/css">
	.st0{fill:#FFFFFF;}
</style>
<g>
	<path class="st0" d="M584.41,361.43c30.4,0,49.22-30.31,49.22-58.39c0-28.08-18.82-58.39-49.22-58.39
		c-30.5,0-49.38,30.31-49.38,58.39C535.03,331.12,553.91,361.43,584.41,361.43z M591.79,355.6c-21.81,2.94-37.72-25.91-40.82-47.87
		c-3.08-22.01,4.26-54.16,26.05-57.25c1.03-0.14,2.05-0.21,3.05-0.21c20.14,0,34.67,27.17,37.61,48.07
		C620.8,320.37,613.52,352.51,591.79,355.6z"/>
	<path class="st0" d="M645.22,367.32c-8.26-3.84-18.65-4.09-29.24-0.7c-3.45,1.1-8.32,3.07-10.82,7.34
		c-1.4,2.39-1.65,5.52-0.67,8.16c0.79,2.15,2.31,3.7,4.28,4.38c3.94,1.37,7.93-1.08,10.36-3.83c0.88-1,1.66-2.08,2.42-3.12
		c1.19-1.64,2.31-3.19,3.76-4.37c2.39-1.96,5.63-2.65,9.13-1.95c4.16,0.83,7.89,3.51,9.75,6.98c3.75,7.02,1.43,17.1-5.29,22.94
		c-5.99,5.2-15.18,7.44-24.6,6.01c-9.42-1.44-18.16-6.12-24.72-10.05c-8.72-5.21-17.14-11.23-25.29-17.06
		c-6.69-4.79-13.61-9.73-20.68-14.23c-19.16-12.17-36.29-18.49-52.36-19.31c-5.19-0.26-10.36,0.1-15.39,1.08l71.55-102.28H463.9
		l-4.14,24.33h5.41l0.22-1.24c3.08-17.72,9.73-17.72,15.59-17.72h45.29c0.4,0.04,0.7,0.07,0.91,0.11
		c-5.1,7.24-73.09,103.65-73.31,103.96c-0.9,1.27-1.85,2.55-2.8,3.84c-1.41,1.9-2.86,3.87-4.17,5.83c-1.5,2.25-2.99,4.67-3.42,7.39
		c-0.32,2.04,0.22,4.04,1.44,5.35c1.03,1.1,2.48,1.62,4.09,1.49c5.63-0.49,8.09-5.55,10.07-9.6c0.44-0.91,0.86-1.77,1.3-2.55
		c6.48-11.61,22.16-14.99,34.28-12.34c13.04,2.86,24.29,11.11,35.17,19.1c14.86,10.89,28.38,20.53,43.42,28.09
		c17.38,8.74,34.2,13.17,49.98,13.17c0.02,0,0.04,0,0.07,0c9.53-0.01,17.2-1.71,23.44-5.21c7.79-4.37,13.08-11.9,13.79-19.64
		C661.41,381.95,655.12,371.93,645.22,367.32z"/>
	<path class="st0" d="M659.05,247.45l-0.01,89.9c0,1.63-0.04,3.28-0.09,4.94c-0.08,3.1-0.17,6.3,0.06,9.35
		c0.1,1.39,0.66,4.62,3.67,4.62c0,0,0,0,0,0c1.03,0,2-0.95,2.63-1.75c0.08-0.11,0.28-0.49,0.42-0.76c0.65-1.28,1.86-3.65,4.04-2.97
		c0.84,0.26,1.46,0.82,1.74,1.58c0.41,1.1,0.07,2.49-1.03,4.22c-1.2,1.9-2.55,3.03-4.63,3.89c-2.08,0.86-4.31,1.29-6.52,1.29
		c-2.6,0-5.18-0.59-7.47-1.77c-4.89-2.52-7.79-7.37-7.75-12.98c0.03-4.81,0.03-8.54,0.02-12.01c0-4.06-0.01-7.89,0.05-12.71
		c0.1-8.64,0.08-63.89,0.01-65.43c-0.03-0.61-0.29-1.45-0.54-1.76l-0.07-0.09c-0.54-0.8-1.46-1.26-2.14-1.5
		c-0.98-0.35-2.07-0.5-3.21-0.65l-8.8-1.19c0,0,26.1-4.48,29.61-5.24L659.05,247.45z"/>
	<path class="st0" d="M650.48,234.84c5.02,0,9.11-4.09,9.11-9.11c0-5.02-4.09-9.11-9.11-9.11s-9.11,4.09-9.11,9.11
		C641.37,230.75,645.46,234.84,650.48,234.84z"/>
</g>
</svg>
