<svg width="181" height="153" viewBox="0 0 181 153" fill="none" xmlns="http://www.w3.org/2000/svg">
<g clip-path="url(#clip0_2626_71)">
<path fill-rule="evenodd" clip-rule="evenodd" d="M60.1392 80.2522C63.0247 80.0043 65.1128 78.4171 66.6762 76.9037C66.9175 76.6823 67.1799 76.2762 67.3635 76.4081V79.4665H73.2184V38.4098H67.3635V60.4621C67.2008 63.9529 66.6919 66.9955 65.7948 69.8377C64.9292 72.5323 63.6018 75.2427 61.5767 76.4872C59.688 77.6578 57.4636 77.0039 56.131 75.7015C50.9108 70.6287 50.2498 56.4703 53.2717 48.1862C54.2843 45.3915 55.769 42.6231 58.1718 41.7372C58.3922 41.6528 58.6283 41.5948 58.8801 41.5474C59.0532 41.5104 59.2316 41.4894 59.4152 41.4683H65.1862V38.4098H58.7332C54.0849 38.8211 50.8112 42.3172 48.7703 46.077C44.4368 54.0763 44.6677 66.4524 49.2477 73.7979C51.2256 76.9723 54.8981 80.7109 60.1392 80.2522ZM155.765 28.9446H149.91V35.0298H155.765V28.9446ZM155.765 38.3729H149.91V79.4665H155.765V38.3729ZM24.7367 80.1151C28.278 79.1343 30.2296 77.7633 32.7584 75.4378C37.5378 71.0189 39.9249 65.6139 39.9249 56.8605C39.9249 52.737 39.0383 49.1459 37.5378 46.2879C34.5736 40.614 30.2191 36.4061 23.1628 35.1563C26.851 32.5672 30.1457 29.4613 31.7353 24.5204C33.7185 18.4669 32.5066 12.5398 30.1877 8.48481C27.7743 4.32958 24.3852 1.60337 18.9447 0.548738C14.2229 -0.368787 8.28928 0.158526 2.37661 0.0899757H0V80.7531C4.29154 80.7531 8.7562 80.7373 12.8799 80.7373C17.1609 80.7373 21.295 81.0642 24.7367 80.1151ZM5.92841 3.05348H8.54635C10.8338 3.07457 11.988 3.0693 13.6143 3.07457C14.2597 3.07457 14.905 3.02711 15.5345 3.06402C17.5649 3.19058 19.5218 3.9921 20.954 5.08363C24.1648 7.49346 26.4995 11.7383 26.8142 16.9956C27.3284 25.8123 24.3747 34.0173 15.9175 34.0173H5.92841V3.05348ZM5.92841 37.3394C5.92316 37.2392 5.91791 37.139 5.99661 37.1337C10.3039 37.1707 13.9659 37.0705 17.7118 37.1337C21.2426 37.1865 24.2488 38.6102 26.6201 40.2607C31.5255 43.625 33.7762 48.8665 33.965 57.314C34.1434 65.3767 31.3051 70.9767 26.9034 74.5836C25.6968 75.5696 24.4586 76.3079 23.0211 76.7719C21.4105 77.2887 19.7211 77.3414 17.6436 77.3414C13.9554 77.3414 10.094 77.3414 5.93365 77.3414C5.92841 64.0215 5.92841 50.6857 5.92841 37.3394ZM172.249 38.4098H180.99L181 35.0087H172.228L172.212 18.2823H166.352L166.368 35.0087H162.365L162.354 38.4098H166.357V67.2012C166.363 68.8886 166.378 70.5812 166.473 72.4427C166.709 74.7681 168.194 76.9986 170.025 78.2167C170.654 78.6386 171.42 78.9919 172.254 79.2239C173.865 79.6721 175.759 79.6616 177.579 79.0394C177.553 78.4118 177.595 77.4469 177.579 76.1602C176.845 76.3026 175.533 76.7034 174.767 76.4292C172.963 75.7806 172.412 74.1828 172.26 72.0683C172.207 71.3353 172.223 70.5443 172.233 69.7112C172.239 68.4351 172.254 60.0297 172.26 57.4564V38.4098H172.249ZM135.136 41.1097L135.199 41.0042L135.367 40.7142C137.287 37.4554 139.884 33.0471 141.416 28.934C141.967 27.4575 142.607 25.6436 142.471 24.0247C142.339 22.4533 141.243 21.7046 139.664 22.0526C136.306 22.7855 133.174 24.7893 130.593 26.4451L129.544 27.1728L129.402 27.2783L129.648 27.7212L129.659 27.737L129.874 28.085L130.451 27.7423C130.588 27.6737 130.708 27.5946 130.813 27.5472C132.072 26.9408 134.26 25.9652 135.96 26.4398C138.698 27.1939 137.009 32.1295 136.301 34.0701L133.793 39.8178L133.741 39.9127L135.136 41.1097Z" fill="#DEDEDE"/>
<path fill-rule="evenodd" clip-rule="evenodd" d="M60.1392 80.2522C63.0247 80.0043 65.1128 78.4171 66.6762 76.9037C66.9175 76.6823 67.1799 76.2762 67.3635 76.4081V79.4665H73.2184V38.4098H67.3635V60.4621C67.2008 63.9529 66.6919 66.9955 65.7948 69.8377C64.9292 72.5323 63.6018 75.2427 61.5767 76.4872C59.688 77.6578 57.4636 77.0039 56.131 75.7015C50.9108 70.6287 50.2498 56.4703 53.2717 48.1862C54.2843 45.3915 55.769 42.6231 58.1718 41.7372C58.3922 41.6528 58.6283 41.5948 58.8801 41.5474C59.0532 41.5104 59.2316 41.4894 59.4152 41.4683H65.1862V38.4098H58.7332C54.0849 38.8211 50.8112 42.3172 48.7703 46.077C44.4368 54.0763 44.6677 66.4524 49.2477 73.7979C51.2256 76.9723 54.8981 80.7109 60.1392 80.2522ZM155.765 28.9446H149.91V35.0298H155.765V28.9446ZM155.765 38.3729H149.91V79.4665H155.765V38.3729ZM24.7367 80.1151C28.278 79.1343 30.2296 77.7633 32.7584 75.4378C37.5378 71.0189 39.9249 65.6139 39.9249 56.8605C39.9249 52.737 39.0383 49.1459 37.5378 46.2879C34.5736 40.614 30.2191 36.4061 23.1628 35.1563C26.851 32.5672 30.1457 29.4613 31.7353 24.5204C33.7185 18.4669 32.5066 12.5398 30.1877 8.48481C27.7743 4.32958 24.3852 1.60337 18.9447 0.548738C14.2229 -0.368787 8.28928 0.158526 2.37661 0.0899757H0V80.7531C4.29154 80.7531 8.7562 80.7373 12.8799 80.7373C17.1609 80.7373 21.295 81.0642 24.7367 80.1151ZM5.92841 3.05348H8.54635C10.8338 3.07457 11.988 3.0693 13.6143 3.07457C14.2597 3.07457 14.905 3.02711 15.5345 3.06402C17.5649 3.19058 19.5218 3.9921 20.954 5.08363C24.1648 7.49346 26.4995 11.7383 26.8142 16.9956C27.3284 25.8123 24.3747 34.0173 15.9175 34.0173H5.92841V3.05348ZM5.92841 37.3394C5.92316 37.2392 5.91791 37.139 5.99661 37.1337C10.3039 37.1707 13.9659 37.0705 17.7118 37.1337C21.2426 37.1865 24.2488 38.6102 26.6201 40.2607C31.5255 43.625 33.7762 48.8665 33.965 57.314C34.1434 65.3767 31.3051 70.9767 26.9034 74.5836C25.6968 75.5696 24.4586 76.3079 23.0211 76.7719C21.4105 77.2887 19.7211 77.3414 17.6436 77.3414C13.9554 77.3414 10.094 77.3414 5.93365 77.3414C5.92841 64.0215 5.92841 50.6857 5.92841 37.3394ZM172.249 38.4098H180.99L181 35.0087H172.228L172.212 18.2823H166.352L166.368 35.0087H162.365L162.354 38.4098H166.357V67.2012C166.363 68.8886 166.378 70.5812 166.473 72.4427C166.709 74.7681 168.194 76.9986 170.025 78.2167C170.654 78.6386 171.42 78.9919 172.254 79.2239C173.865 79.6721 175.759 79.6616 177.579 79.0394C177.553 78.4118 177.595 77.4469 177.579 76.1602C176.845 76.3026 175.533 76.7034 174.767 76.4292C172.963 75.7806 172.412 74.1828 172.26 72.0683C172.207 71.3353 172.223 70.5443 172.233 69.7112C172.239 68.4351 172.254 60.0297 172.26 57.4564V38.4098H172.249ZM135.136 41.1097L135.199 41.0042L135.367 40.7142C137.287 37.4554 139.884 33.0471 141.416 28.934C141.967 27.4575 142.607 25.6436 142.471 24.0247C142.339 22.4533 141.243 21.7046 139.664 22.0526C136.306 22.7855 133.174 24.7893 130.593 26.4451L129.544 27.1728L129.402 27.2783L129.648 27.7212L129.659 27.737L129.874 28.085L130.451 27.7423C130.588 27.6737 130.708 27.5946 130.813 27.5472C132.072 26.9408 134.26 25.9652 135.96 26.4398C138.698 27.1939 137.009 32.1295 136.301 34.0701L133.793 39.8178L133.741 39.9127L135.136 41.1097Z" fill="white"/>
<path fill-rule="evenodd" clip-rule="evenodd" d="M135.137 41.1093L135.2 41.0039L135.367 40.7138C137.288 37.455 139.885 33.0467 141.417 28.9337C141.967 27.4572 142.607 25.6432 142.471 24.0244C142.34 22.453 141.243 21.7042 139.664 22.0522C136.307 22.7852 133.174 24.789 130.593 26.4447L129.544 27.1724L129.402 27.2779L129.649 27.7208L129.659 27.7367L129.875 28.0847L130.452 27.7419C130.588 27.6734 130.709 27.5943 130.814 27.5468C132.073 26.9404 134.26 25.9649 135.96 26.4395C138.699 27.1935 137.01 32.1292 136.301 34.0697L133.794 39.8174L133.741 39.9123L135.137 41.1093Z" fill="#B32630"/>
<path fill-rule="evenodd" clip-rule="evenodd" d="M135.136 41.1097C134.722 40.7142 134.203 40.2871 133.746 39.9127C132.744 39.1481 131.642 38.4995 130.425 38.0144C127.797 36.9492 125.294 37.6294 123.128 38.7737C117.131 41.9534 114.403 48.9561 113.941 57.4828C113.458 66.3944 116.475 74.0984 121.092 78.1113C122.718 79.5297 124.749 80.9693 127.435 81.0906C126.611 81.639 125.772 82.1505 124.953 82.6936L124.88 82.7464C115.94 88.3359 120.116 92.0587 120.116 92.0587L120.132 92.0693C120.861 92.7811 121.895 93.2188 122.86 93.6248C115.148 100.137 112.734 113.837 113.873 128.259C114.398 134.966 116.019 140.825 118.705 145.576C119.969 147.78 121.596 150.158 123.678 151.603C124.906 152.452 126.186 153.09 127.844 152.99C129.402 152.89 130.698 152.346 131.973 151.55C136.327 148.819 138.804 143.535 140.231 137.677C141.694 131.755 142.277 124.678 141.799 117.602C141.338 110.673 139.858 104.593 137.445 99.7997C135.971 96.8836 133.904 93.7725 131.044 92.4489C129.082 91.5736 126.784 91.5209 126.218 89.0583C126.218 89.0583 125.777 87.8086 126.753 85.9577C127.959 83.6639 129.528 82.1136 131.354 80.6951C132.954 79.4559 134.554 78.2273 135.955 76.8035C139.313 73.4024 141.007 69.6743 141.647 63.7209C142.298 57.6199 141.264 51.9302 139.412 47.5587C138.368 45.0962 136.946 42.8815 135.136 41.1097ZM123.39 74.9368C118.605 67.5492 118.117 49.4782 124.072 42.6336C124.911 41.6897 125.819 40.672 127.34 40.4453C127.718 40.382 128.468 40.3293 129.129 40.5824C131.506 41.4788 133.101 44.3843 133.988 46.8838C135.855 52.004 136.574 59.8399 135.399 66.4787C134.843 69.5952 133.872 72.4637 132.471 74.6626C131.516 76.1233 129.859 78.2906 127.409 78.1165C125.808 78.0058 124.255 76.2446 123.39 74.9368ZM127.409 94.8113C129.612 94.4896 131.296 97.1947 132.209 99.0245C135.173 105.099 136.128 113.436 136.128 122.094C136.128 130.505 135.31 139.485 132.403 145.507C131.501 147.353 129.932 149.736 128.007 150.005C125.541 150.353 123.972 147.711 122.991 145.576C122.12 143.646 121.422 141.152 121.003 139C119.906 133.558 119.324 129.071 119.324 123.418C119.324 117.507 119.828 111.822 120.604 107.556C121.312 103.633 123.107 97.7537 125.73 95.6761C126.123 95.3597 126.737 94.9009 127.409 94.8113ZM99.5083 39.9127C98.5063 39.1481 97.4045 38.4995 96.1874 38.0144C93.5642 36.9492 91.0617 37.6294 88.8897 38.7737C82.8931 41.9534 80.1597 48.9561 79.7033 57.4828C79.2258 66.3944 82.2373 74.0984 86.8541 78.1113C88.4804 79.5297 90.5108 80.9693 93.1969 81.0906C92.3733 81.639 91.5338 82.1505 90.7154 82.6936L90.642 82.7464C81.6969 88.3359 85.8782 92.0587 85.8782 92.0587L85.894 92.0693C86.6232 92.7811 87.6568 93.2188 88.6221 93.6248C80.9099 100.137 78.4966 113.837 79.6351 128.259C80.1597 134.966 81.7808 140.825 84.467 145.576C85.7261 147.78 87.3577 150.158 89.4405 151.603C90.6682 152.452 91.9483 153.09 93.6062 152.99C95.1643 152.89 96.4549 152.346 97.7298 151.55C102.084 148.819 104.561 143.535 105.988 137.677C107.451 131.755 108.034 124.678 107.556 117.602C107.095 110.673 105.615 104.593 103.202 99.7997C101.728 96.8836 99.6605 93.7725 96.8012 92.4489C94.8391 91.5736 92.5411 91.5209 91.9745 89.0583C91.9745 89.0583 91.5391 87.8086 92.5097 85.9577C93.7163 83.6639 95.285 82.1136 97.1107 80.6951C98.7056 79.4559 100.311 78.2273 101.707 76.8035C105.069 73.4024 106.764 69.6743 107.399 63.7209C108.049 57.6199 107.016 51.9302 105.164 47.5587C103.663 44.0046 101.654 41.811 100.893 41.115C100.138 40.4136 99.5083 39.9127 99.5083 39.9127ZM89.1835 74.9368C84.3516 67.5492 83.8636 49.4782 89.876 42.6336C90.7206 41.6897 91.6388 40.672 93.176 40.4453C93.5589 40.382 94.3144 40.3293 94.986 40.5824C97.3836 41.4788 98.9994 44.3843 99.8913 46.8838C101.775 52.004 102.504 59.8399 101.313 66.4787C100.752 69.5952 99.7707 72.4637 98.3541 74.6626C97.3888 76.1233 95.7152 78.2906 93.2442 78.1165C91.6283 78.0058 90.0544 76.2446 89.1835 74.9368ZM93.2389 94.8113C95.4634 94.4896 97.1632 97.1947 98.0866 99.0245C101.082 105.099 102.042 113.436 102.042 122.094C102.042 130.505 101.208 139.485 98.2807 145.507C97.3678 147.353 95.7834 149.736 93.8422 150.005C91.3502 150.353 89.7711 147.711 88.7795 145.576C87.9033 143.646 87.2003 141.152 86.7754 139C85.6684 133.558 85.0808 129.071 85.0808 123.418C85.0808 117.507 85.5897 111.822 86.3714 107.556C87.0849 103.633 88.9002 97.7537 91.5496 95.6761C91.9483 95.3597 92.5674 94.9009 93.2389 94.8113Z" fill="white"/>
</g>
<defs>
<clipPath id="clip0_2626_71">
<rect width="181" height="153" fill="white"/>
</clipPath>
</defs>
</svg>
